<svg xmlns="http://www.w3.org/2000/svg" version="1.1" xlink="http://www.w3.org/1999/xlink" xmlns:svgjs="http://svgjs.com/svgjs" width="100%" height="100%" preserveAspectRatio="xMidYMid meet" viewBox="0 0 300.0007629394531 82.14559936523438" overflow="visible"><defs id="SvgjsDefs146556"><linearGradient id="SvgjsLinearGradientY6eNJfLIy" gradientUnits="userSpaceOnUse" x1="12.50000000000001" y1="87.5" x2="87.50000000000001" y2="12.499999999999993"><stop id="SvgjsStop146559" stop-color="#e67766" offset="0.05"></stop><stop id="SvgjsStop146560" stop-color="#af301d" offset="0.95"></stop></linearGradient></defs><g id="SvgjsG146557" transform="scale(0.6493506493506493)" opacity="1"><g id="SvgjsG146561" class="_PQrH83w4" transform="translate(-23.719539618833103, -15.813026412555399) scale(1.5813026412555407)" light-content="false" non-strokable="false" fill="url(#SvgjsLinearGradientY6eNJfLIy)"><path d="M21.667 73.809V33.867l28.33-16.188 28.337 16.188V66.13L49.997 82.321 35 73.75V41.604l14.997-8.57L65 41.604v16.788l-15.003 8.571-1.663-.95v-16.67l8.382-4.792-6.719-3.838-8.33 4.763V69.88l8.33 4.762 21.67-12.383V37.737l-21.67-12.379-21.663 12.379v39.88L49.997 90 85 70V30L49.997 10 15 30v40z"></path></g><g id="SvgjsG146562" class="text" transform="translate(301.3511292994107, 67.23591988759995) scale(1)" light-content="false" fill="#af301d"><path d="M-130.7 0L-130.7 -9.47L-147.39 -9.47L-147.39 -43.4L-159.13 -43.4L-159.13 0Z M-105.4 -34.46C-102.48 -34.46 -100.3 -33.43 -98.86 -31.35C-97.42 -29.27 -96.7 -26.08 -96.7 -21.77C-96.7 -17.46 -97.41 -14.28 -98.84 -12.24C-100.27 -10.19 -102.48 -9.17 -105.47 -9.17C-111.3 -9.17 -114.21 -13.38 -114.21 -21.82C-114.21 -30.25 -111.27 -34.46 -105.4 -34.46ZM-121.14 -38.36C-124.74 -34.55 -126.54 -29.02 -126.54 -21.77C-126.54 -14.51 -124.74 -8.97 -121.12 -5.14C-117.5 -1.32 -112.26 0.59 -105.39 0.59C-98.52 0.59 -93.29 -1.3 -89.72 -5.1C-86.15 -8.89 -84.36 -14.45 -84.36 -21.77C-84.36 -29.09 -86.14 -34.63 -89.71 -38.41C-93.27 -42.18 -98.49 -44.06 -105.39 -44.06C-112.28 -44.06 -117.53 -42.16 -121.14 -38.36Z M-59.1 -16.36L-51.35 -16.36L-51.35 -9.56C-52.76 -9.21 -54.35 -9.04 -56.13 -9.04C-59.32 -9.04 -61.76 -10.1 -63.45 -12.24C-65.15 -14.37 -65.99 -17.48 -65.99 -21.59C-65.99 -25.69 -65.06 -28.85 -63.19 -31.07C-61.32 -33.29 -58.59 -34.4 -54.99 -34.4C-51.4 -34.4 -48.05 -33.63 -44.95 -32.09L-41.26 -41.29C-45.39 -43.12 -50.07 -44.03 -55.31 -44.03C-62.54 -44.03 -68.15 -42.08 -72.13 -38.17C-76.11 -34.27 -78.1 -28.77 -78.1 -21.67C-78.1 -14.57 -76.27 -9.08 -72.62 -5.21C-68.95 -1.34 -63.78 0.59 -57.12 0.59C-51.01 0.59 -45.42 -0.27 -40.37 -2.01L-40.37 -25.39L-59.1 -25.39Z M-19.75 0L-19.75 -43.4L-31.53 -43.4L-31.53 0Z M-12.37 -12.6L-12.37 -2.14C-10.34 -1.18 -8.34 -0.48 -6.35 -0.05C-4.36 0.38 -1.9 0.59 1.02 0.59C6.15 0.64 10.27 -0.63 13.41 -3.2C16.54 -5.77 18.08 -9.1 18.04 -13.19C18.04 -16.14 17.3 -18.56 15.83 -20.45C14.38 -22.38 11.75 -24.21 7.95 -25.94C4.14 -27.66 1.8 -28.87 0.91 -29.55C0.02 -30.23 -0.43 -31 -0.43 -31.84C-0.43 -32.69 -0.07 -33.36 0.66 -33.87C1.39 -34.38 2.47 -34.63 3.92 -34.63C6.89 -34.63 10.4 -33.71 14.45 -31.86L18.04 -40.9C13.33 -42.98 8.75 -44.03 4.29 -44.03C-0.79 -44.03 -4.79 -42.91 -7.72 -40.66C-10.62 -38.42 -12.07 -35.28 -12.07 -31.23C-12.07 -27.19 -10.69 -23.98 -7.92 -21.6C-6.57 -20.46 -4.36 -19.18 -1.29 -17.78C1.79 -16.37 3.66 -15.45 4.3 -15.02C4.95 -14.59 5.45 -14.16 5.8 -13.72C6.13 -13.28 6.3 -12.76 6.3 -12.17C6.3 -11.18 5.88 -10.39 5.03 -9.81C4.18 -9.23 2.84 -8.94 1.01 -8.94C-0.83 -8.94 -2.94 -9.25 -5.31 -9.86C-7.68 -10.48 -10.04 -11.39 -12.37 -12.6Z M43.9 -33.8L54.45 -33.8L54.45 -43.4L21.57 -43.4L21.57 -33.8L32.16 -33.8L32.16 0L43.9 0Z M72.42 0L72.42 -43.4L60.65 -43.4L60.65 0Z M111.11 -31.73L114.7 -40.96C110.46 -43.01 105.99 -44.03 101.28 -44.03C97.04 -44.07 93.31 -43.17 90.1 -41.31C86.89 -39.45 84.43 -36.81 82.73 -33.39C81.03 -29.97 80.2 -26.03 80.24 -21.57C80.24 -14.4 81.98 -8.92 85.45 -5.11C88.95 -1.31 93.97 0.59 100.52 0.59C105.12 0.59 109.22 -0.21 112.82 -1.81L112.82 -11.71C108.38 -9.9 104.71 -9 101.81 -9C95.46 -9 92.28 -13.17 92.28 -21.5C92.28 -25.53 93.06 -28.68 94.62 -30.97C96.18 -33.25 98.37 -34.4 101.18 -34.4C104 -34.4 107.31 -33.51 111.11 -31.73Z M139.6 -34.46C142.53 -34.46 144.71 -33.43 146.15 -31.35C147.59 -29.27 148.31 -26.08 148.31 -21.77C148.31 -17.46 147.6 -14.28 146.17 -12.24C144.74 -10.19 142.53 -9.17 139.54 -9.17C133.71 -9.17 130.8 -13.38 130.8 -21.82C130.8 -30.25 133.73 -34.46 139.6 -34.46ZM123.87 -38.36C120.27 -34.55 118.46 -29.02 118.46 -21.77C118.46 -14.51 120.27 -8.97 123.89 -5.14C127.51 -1.32 132.75 0.59 139.62 0.59C146.49 0.59 151.71 -1.3 155.29 -5.1C158.86 -8.89 160.65 -14.45 160.65 -21.77C160.65 -29.09 158.86 -34.63 155.3 -38.41C151.74 -42.18 146.51 -44.06 139.62 -44.06C132.73 -44.06 127.48 -42.16 123.87 -38.36Z"></path></g></g></svg>